<?xml version="1.0" encoding="utf-8"?>
<!-- Generator: Adobe Illustrator 23.0.6, SVG Export Plug-In . SVG Version: 6.00 Build 0)  -->
<svg version="1.1" id="Layer_1" xmlns="http://www.w3.org/2000/svg" xmlns:xlink="http://www.w3.org/1999/xlink" x="0px" y="0px"
	 viewBox="0 0 32 32" style="enable-background:new 0 0 32 32;" xml:space="preserve">
<style type="text/css">
	.st0{fill:#FFFFFF;}
	.st1{fill:#333333;}
</style>
<title>35x35-ttn1x</title>
<g>
	<g id="Layer_1-2">
		<circle class="st0" cx="16" cy="16" r="16"/>
		<path class="st1" d="M25.3,22.3c-0.3,0-1-0.7-1.3-1c-0.4,0-0.8,0.1-1.2,0.2c-0.2,0.2-0.5,1.8-0.8,1.8c-0.6-0.4-1-1-1.3-1.7
			c-1.1,0.4-2.2,0.4-3.3,0C17,21.5,16.4,24,16,24c-0.7,0-1.3-2.7-2-2.8c-0.6-0.1-1.2-0.2-1.7-0.3c-0.4-0.1-1.2,1.9-1.6,1.7
			s-0.7-2.5-1.2-2.7S8.4,21.6,8,21.3S7.6,19.2,7.3,19s-0.7,1.4-1,1c-0.6-0.8-0.9-4.4-0.9-5.3C5.4,11,10.2,8,16,8
			c6.6,0,10.3,3,10.3,6.7C26.3,14.7,26,22,25.3,22.3z"/>
		<path class="st0" d="M26,14.7c0,2.6-1.6,4.9-4,4.9c-2.6-0.2-4.6-2.3-4.6-4.9c0-2.6,1.4-5.1,3.7-5.1C23.8,9.9,25.8,12.1,26,14.7z"
			/>
		<ellipse transform="matrix(0.4042 -0.9147 0.9147 0.4042 -1.4053 31.9913)" class="st1" cx="23.9" cy="17.1" rx="1.3" ry="0.9"/>
	</g>
</g>
</svg>
