<svg xmlns="http://www.w3.org/2000/svg" viewBox="0 0 95.04 95.04"><defs><style>.cls-1{fill:#1ad6f5;}.cls-2{fill:#333;}.cls-3{fill:#fff;}</style></defs><title>100x100-ttv1x</title><g id="Layer_2" data-name="Layer 2"><g id="Layer_1-2" data-name="Layer 1"><circle class="cls-1" cx="47.52" cy="47.52" r="47.52"/><path class="cls-2" d="M75.24,66.33c-1,0-3-2-4-3a12.89,12.89,0,0,0-3.46.5c-.5.49-1.49,5.44-2.48,5.44-2-1-4-5-4-5-4,1-6.71,1.05-9.9,0-1.12-.37-2.74,6.93-4,6.93-2.05,0-3.9-8-5.84-8.21a46.4,46.4,0,0,1-5.17-.91c-1.34-.32-3.58,5.59-4.83,5.16-1.56-.53-2.08-7.41-3.47-8.09s-3.26,5-4.45,4.13c-.93-.63-1.19-6.22-2-6.93-1.17-1-2.13,4.16-3,3C17.08,57,16,46.45,16,43.6c0-11,14.17-19.84,31.64-19.84,19.65,0,30.54,8.85,30.54,19.8C78.21,43.56,77.22,65.34,75.24,66.33Z"/><path class="cls-3" d="M77.22,43.76c0,7.81-4.84,14.51-12,14.51s-13.79-6.7-13.79-14.51,4-15,11.11-15S77.22,36.2,77.22,43.76Z"/><ellipse class="cls-2" cx="70.89" cy="50.73" rx="3.85" ry="2.61" transform="translate(-4.17 95.06) rotate(-66.16)"/></g></g></svg>