<?xml version="1.0" encoding="utf-8"?>
<!-- Generator: Adobe Illustrator 23.0.6, SVG Export Plug-In . SVG Version: 6.00 Build 0)  -->
<svg version="1.1" id="Layer_1" xmlns="http://www.w3.org/2000/svg" xmlns:xlink="http://www.w3.org/1999/xlink" x="0px" y="0px"
	 viewBox="0 0 95 95" style="enable-background:new 0 0 95 95;" xml:space="preserve">
<style type="text/css">
	.st0{fill:#FFFFFF;}
	.st1{fill:#333333;}
</style>
<title>100x100-ttv1x</title>
<g>
	<g id="Layer_1-2">
		<circle class="st0" cx="47.5" cy="47.5" r="47.5"/>
		<path class="st1" d="M75.2,66.3c-1,0-3-2-4-3c-1.2,0-2.3,0.2-3.5,0.5c-0.5,0.5-1.5,5.4-2.5,5.4c-2-1-4-5-4-5c-4,1-6.7,1.1-9.9,0
			c-1.1-0.4-2.7,6.9-4,6.9c-2,0-3.9-8-5.8-8.2c-1.7-0.2-3.5-0.5-5.2-0.9c-1.3-0.3-3.6,5.6-4.8,5.2c-1.6-0.5-2.1-7.4-3.5-8.1
			s-3.3,5-4.5,4.1c-0.9-0.6-1.2-6.2-2-6.9c-1.2-1-2.1,4.2-3,3C17.1,57,16,46.5,16,43.6c0-11,14.2-19.8,31.6-19.8
			c19.7,0,30.5,8.9,30.5,19.8C78.2,43.6,77.2,65.3,75.2,66.3z"/>
		<path class="st0" d="M77.2,43.8c0,7.8-4.8,14.5-12,14.5s-13.8-6.7-13.8-14.5s4-15,11.1-15S77.2,36.2,77.2,43.8z"/>
		<ellipse transform="matrix(0.4042 -0.9147 0.9147 0.4042 -4.161 95.0576)" class="st1" cx="70.9" cy="50.7" rx="3.8" ry="2.6"/>
	</g>
</g>
</svg>
